<mxfile host="app.diagrams.net" modified="2024-03-19T11:47:48.502Z" agent="Mozilla/5.0 (Macintosh; Intel Mac OS X 10_15_7) AppleWebKit/537.36 (KHTML, like Gecko) Chrome/122.0.0.0 Safari/537.36" version="24.0.7" etag="tmo1AyJCmpYT2HB8-wlM" type="github">
  <diagram name="Page-1" id="F_IIuRu0TYrTivQQI0Uh">
    <mxGraphModel>
      <root>
        <mxCell id="0" />
        <mxCell id="1" parent="0" />
      </root>
    </mxGraphModel>
  </diagram>
</mxfile>
